<?xml version="1.0" encoding="utf-8"?>
<!-- Svg Vector Icons : http://www.onlinewebfonts.com/icon -->
<!DOCTYPE svg PUBLIC "-//W3C//DTD SVG 1.1//EN" "http://www.w3.org/Graphics/SVG/1.1/DTD/svg11.dtd">
<svg version="1.1" xmlns="http://www.w3.org/2000/svg" xmlns:xlink="http://www.w3.org/1999/xlink" x="0px" y="0px" fill="#ff7644" height="30" width="30" viewBox="0 0 1000 1000" enable-background="new 0 0 1000 1000" xml:space="preserve">
<metadata> Svg Vector Icons : http://www.onlinewebfonts.com/icon </metadata>
<g><g transform="translate(0.000000,511.000000) scale(0.100000,-0.100000)"><path d="M1447.5,4949.2l-69.3-66.6V110v-4772.6l69.3-66.6c50.6-53.3,87.9-66.6,151.9-58.6C1730-4771.9,8594.5-41.9,8615.8,46c8,34.6,8,93.3,0,127.9c-21.3,87.9-6885.8,4817.9-7016.4,4833.9C1535.4,5015.9,1498.1,5002.5,1447.5,4949.2z M4925,2249.8C6625.2,1080,8010.9,115.3,8008.2,104.7c-8-21.3-6166.3-4258.3-6190.3-4258.3c-8,0-13.3,1918.6-13.3,4263.6c0,2345,8,4263.7,16,4263.7C1828.6,4373.6,3227.6,3417,4925,2249.8z"/></g></g>
</svg>